<svg width="12" height="12" viewBox="0 0 12 12" fill="none" xmlns="http://www.w3.org/2000/svg">
  <g>
    <rect width="12" height="12" fill="white" />
    <g transform="translate(0.25,0.5) scale(1.1)">
    <path d="M3.78976 0H6.62369C7.67985 0 8.53528 1.01762 8.53528 2.27402V7.45594H1.87817V2.27402C1.87817 1.01762 2.736 0 3.78976 0Z"
          fill="#1985FF" />
    <path d="M10.2078 8.01296V1.92427C10.2078 1.92427 10.2508 1.2307 9.62476 1.2307C8.99872 1.2307 9.00111 1.9527 9.00111 1.9527V8.00443L5.15643 8.0158L1.41688 8.00443V1.94417C1.41688 1.94417 1.41688 1.22217 0.793223 1.22217C0.169567 1.22217 0.210189 1.91574 0.210189 1.91574V8.00443C0.210189 8.00443 0.0835458 9.99135 2.42763 9.99135H7.98797C7.98797 9.99135 5.64388 10.0027 7.98797 10.0027C10.3321 10.0027 10.2054 8.0158 10.2054 8.0158L10.2078 8.01296Z"
          fill="#1985FF" />
    </g>
  </g>
</svg>
