<svg width="12" height="12" viewBox="0 0 12 12" fill="none" xmlns="http://www.w3.org/2000/svg">

  <g opacity="0.5">
      <rect width="12px" height="12px" fill="white"/>
      <g transform="translate(0.5,0.5) scale(0.9)">
        <path d="M4.29488 0H7.6956C8.96298 0 9.98951 1.22115 9.98951 2.72882V8.94713H2.00098V2.72882C2.00098 1.22115 3.03037 0 4.29488 0Z"
              fill="grey" fill-opacity="0.5" />
        <path d="M11.9976 9.61574V2.30932C11.9976 2.30932 12.0492 1.47703 11.298 1.47703C10.5467 1.47703 10.5496 2.34343 10.5496 2.34343V9.60551L5.93595 9.61916L1.4485 9.60551V2.3332C1.4485 2.3332 1.4485 1.4668 0.70011 1.4668C-0.0482769 1.4668 0.000468597 2.29909 0.000468597 2.29909V9.60551C0.000468597 9.60551 -0.151503 11.9898 2.6614 11.9898H9.3338C9.3338 11.9898 6.5209 12.0035 9.3338 12.0035C12.1467 12.0035 11.9947 9.61916 11.9947 9.61916L11.9976 9.61574Z"
              fill="grey"
              fill-opacity="1"
        />
    </g>
  </g>
</svg>
