<svg width="11" height="10" viewBox="0 0 11 10" fill="none" xmlns="http://www.w3.org/2000/svg">
  <g clip-path="url(#clip0_160_25349)">
    <path fill-rule="evenodd" clip-rule="evenodd" d="M4.83267 5.40627H7.12062L7.92557 7.11823L7.55205 7.28424L6.85677 5.80557H4.47976L4.04812 3.05L4.05094 3.04959C4.04406 3.00606 4.0372 2.96248 4.0372 2.9171C4.0372 2.43519 4.43894 2.04443 4.93479 2.04443C5.43065 2.04443 5.83239 2.43503 5.83239 2.9171C5.83239 3.39916 5.43063 3.78978 4.93481 3.78978C4.80349 3.78978 4.67966 3.76089 4.56722 3.71161L4.65746 4.28769H6.14544V4.687H4.72001L4.83267 5.40627ZM5.42165 2.9171C5.42165 2.65569 5.20375 2.44374 4.93479 2.44374C4.66594 2.44374 4.44791 2.65559 4.44791 2.9171C4.44791 3.1786 4.66582 3.39047 4.93479 3.39047C5.20377 3.39047 5.42165 3.1785 5.42165 2.9171ZM2.95149 6.02865C2.95149 5.58152 3.12138 5.17258 3.40352 4.85712L3.09359 4.5951C2.74939 4.97995 2.54077 5.48098 2.54077 6.02865C2.54077 7.24737 3.57121 8.23054 4.83568 8.23054C5.62803 8.23054 6.32737 7.84491 6.73977 7.25807L6.40064 7.03282C6.06244 7.51408 5.48824 7.83123 4.83568 7.83123C3.7924 7.83123 2.95149 7.02138 2.95149 6.02865Z" fill="white" />
  </g>
</svg>